<?xml version="1.0" encoding="UTF-8"?>
<svg xmlns="http://www.w3.org/2000/svg" xmlns:xlink="http://www.w3.org/1999/xlink" viewBox="0 0 128 128" width="128px" height="128px">
<g id="surface33001421">
<path style=" stroke:none;fill-rule:nonzero;fill:rgb(100%,100%,100%);fill-opacity:1;" d="M 119 64 C 119 94.375 94.375 119 64 119 C 33.625 119 9 94.375 9 64 C 9 33.625 33.625 9 64 9 C 94.375 9 119 33.625 119 64 Z M 119 64 "/>
<path style=" stroke:none;fill-rule:nonzero;fill:rgb(13.333334%,12.54902%,12.54902%);fill-opacity:1;" d="M 15 69.199219 C 13.398438 69.199219 12.101562 67.898438 12 66.300781 C 12 65.5 11.898438 64.800781 11.898438 64 C 11.898438 62.300781 13.199219 61 14.898438 61 C 16.601562 61 17.898438 62.300781 17.898438 64 C 17.898438 64.699219 17.898438 65.398438 17.898438 66.101562 C 18 67.800781 16.699219 69.199219 15 69.199219 C 15.101562 69.199219 15.101562 69.199219 15 69.199219 Z M 15 69.199219 "/>
<path style=" stroke:none;fill-rule:nonzero;fill:rgb(13.333334%,12.54902%,12.54902%);fill-opacity:1;" d="M 64 116 C 44.101562 116 26.199219 104.898438 17.398438 87 C 16.699219 85.5 17.300781 83.699219 18.800781 83 C 20.300781 82.300781 22.101562 82.898438 22.800781 84.398438 C 30.601562 100.199219 46.398438 110 64 110 C 89.398438 110 110 89.398438 110 64 C 110 51.699219 105.199219 40.199219 96.5 31.5 C 95.300781 30.300781 95.300781 28.398438 96.5 27.300781 C 97.699219 26.101562 99.601562 26.101562 100.699219 27.300781 C 110.601562 37.101562 116 50.101562 116 64 C 116 92.699219 92.699219 116 64 116 Z M 64 116 "/>
<path style=" stroke:none;fill-rule:nonzero;fill:rgb(89.411765%,89.411765%,90.588236%);fill-opacity:1;" d="M 71 39 C 71 42.867188 67.867188 46 64 46 C 60.132812 46 57 42.867188 57 39 C 57 35.132812 60.132812 32 64 32 C 67.867188 32 71 35.132812 71 39 Z M 71 39 "/>
<path style=" stroke:none;fill-rule:nonzero;fill:rgb(89.411765%,89.411765%,90.588236%);fill-opacity:1;" d="M 57 68 L 57 92 C 57 95.898438 60.101562 99 64 99 C 67.898438 99 71 95.898438 71 92 L 71 68 C 71 64.101562 67.898438 61 64 61 C 60.101562 61 57 64.101562 57 68 Z M 57 68 "/>
<path style=" stroke:none;fill-rule:nonzero;fill:rgb(26.666668%,29.411766%,32.941177%);fill-opacity:1;" d="M 64 122 C 32 122 6 96 6 64 C 6 32 32 6 64 6 C 96 6 122 32 122 64 C 122 96 96 122 64 122 Z M 64 12 C 35.300781 12 12 35.300781 12 64 C 12 92.699219 35.300781 116 64 116 C 92.699219 116 116 92.699219 116 64 C 116 35.300781 92.699219 12 64 12 Z M 64 12 "/>
<path style=" stroke:none;fill-rule:nonzero;fill:rgb(26.666668%,29.411766%,32.941177%);fill-opacity:1;" d="M 64 49 C 58.5 49 54 44.5 54 39 C 54 33.5 58.5 29 64 29 C 69.5 29 74 33.5 74 39 C 74 44.5 69.5 49 64 49 Z M 64 35 C 61.800781 35 60 36.800781 60 39 C 60 41.199219 61.800781 43 64 43 C 66.199219 43 68 41.199219 68 39 C 68 36.800781 66.199219 35 64 35 Z M 64 35 "/>
<path style=" stroke:none;fill-rule:nonzero;fill:rgb(26.666668%,29.411766%,32.941177%);fill-opacity:1;" d="M 64 102 C 58.5 102 54 97.5 54 92 L 54 68 C 54 62.5 58.5 58 64 58 C 69.5 58 74 62.5 74 68 L 74 92 C 74 97.5 69.5 102 64 102 Z M 64 64 C 61.800781 64 60 65.800781 60 68 L 60 92 C 60 94.199219 61.800781 96 64 96 C 66.199219 96 68 94.199219 68 92 L 68 68 C 68 65.800781 66.199219 64 64 64 Z M 64 64 "/>
</g>
</svg>
