<?xml version="1.0" encoding="UTF-8" standalone="no"?>
<!-- Created with Inkscape (http://www.inkscape.org/) -->

<svg
   xmlns:dc="http://purl.org/dc/elements/1.1/"
   xmlns:cc="http://creativecommons.org/ns#"
   xmlns:rdf="http://www.w3.org/1999/02/22-rdf-syntax-ns#"
   xmlns:svg="http://www.w3.org/2000/svg"
   xmlns="http://www.w3.org/2000/svg"
   xmlns:sodipodi="http://sodipodi.sourceforge.net/DTD/sodipodi-0.dtd"
   xmlns:inkscape="http://www.inkscape.org/namespaces/inkscape"
   width="700mm"
   height="700mm"
   viewBox="0 0 700 700"
   version="1.1"
   id="svg4649"
   inkscape:export-filename="C:\Users\alex\sites\vale-logo-0.png"
   inkscape:export-xdpi="148.63"
   inkscape:export-ydpi="148.63"
   inkscape:version="0.92.1 r15371"
   sodipodi:docname="vale-logo.svg">
  <defs
     id="defs4643">
    <clipPath
       clipPathUnits="userSpaceOnUse"
       id="clipPath54">
      <path
         d="M 0,0 H 878.74 V 595.276 H 0 Z"
         id="path52"
         inkscape:connector-curvature="0" />
    </clipPath>
    <clipPath
       clipPathUnits="userSpaceOnUse"
       id="clipPath30">
      <path
         d="M 0,0 H 878.74 V 595.276 H 0 Z"
         id="path28"
         inkscape:connector-curvature="0" />
    </clipPath>
  </defs>
  <sodipodi:namedview
     id="base"
     pagecolor="#ffffff"
     bordercolor="#666666"
     borderopacity="1.0"
     inkscape:pageopacity="0.0"
     inkscape:pageshadow="2"
     inkscape:zoom="0.0875"
     inkscape:cx="612.42214"
     inkscape:cy="1737.4665"
     inkscape:document-units="mm"
     inkscape:current-layer="layer1"
     showgrid="false"
     inkscape:window-width="1600"
     inkscape:window-height="838"
     inkscape:window-x="-8"
     inkscape:window-y="-8"
     inkscape:window-maximized="1" />
  <metadata
     id="metadata4646">
    <rdf:RDF>
      <cc:Work
         rdf:about="">
        <dc:format>image/svg+xml</dc:format>
        <dc:type
           rdf:resource="http://purl.org/dc/dcmitype/StillImage" />
        <dc:title></dc:title>
      </cc:Work>
    </rdf:RDF>
  </metadata>
  <g
     inkscape:label="Camada 1"
     inkscape:groupmode="layer"
     id="layer1"
     transform="translate(0,403)">
    <g
       transform="matrix(5.2660112,0,0,-5.2660112,-3700.4228,2600.2924)"
       id="g24"
       inkscape:export-xdpi="66.934593"
       inkscape:export-ydpi="66.934593">
      <g
         id="g26"
         clip-path="url(#clipPath30)">
        <g
           id="g32"
           transform="translate(746.0233,514.0734)">
          <path
             d="m 0,0 c 3.374,-2.866 6.626,-5.259 10.125,-5.259 6.43,0 9.437,4.025 9.437,4.025 L -2.146,-30.069 -28.744,5.492 c 0,0 4.343,4.135 11.578,4.135 C -10.354,9.627 -5.041,4.284 0,0"
             style="fill:#008f83;fill-opacity:1;fill-rule:nonzero;stroke:none"
             id="path34"
             inkscape:connector-curvature="0" />
        </g>
        <g
           id="g36"
           transform="translate(771.0339,519.9888)">
          <path
             d="m 0,0 c 0,0 -2.481,2.058 -5.788,2.058 -6.617,0 -10.752,-6.616 -19.223,-7.973 3.375,-2.866 6.627,-5.259 10.126,-5.259 6.43,0 9.437,4.025 9.437,4.025 z"
             style="fill:#f3c108;fill-opacity:1;fill-rule:nonzero;stroke:none"
             id="path38"
             inkscape:connector-curvature="0" />
        </g>
        <g
           id="g40"
           transform="translate(784.1905,503.5073)">
          <path
             d="m 0,0 h -2.653 l -3.452,-9.316 c -0.199,-0.539 -0.318,-0.897 -0.318,-0.897 h -0.041 c 0,0 -2.713,6.822 -4.109,10.213 h -2.792 l 4.907,-11.989 c 0.279,-0.698 1.177,-1.855 2.932,-1.855 z"
             style="fill:#747678;fill-opacity:1;fill-rule:nonzero;stroke:none"
             id="path42"
             inkscape:connector-curvature="0" />
        </g>
      </g>
    </g>
    <g
       id="g44"
       transform="matrix(5.2660112,0,0,-5.2660112,562.90332,20.670463)"
       inkscape:export-xdpi="66.934593"
       inkscape:export-ydpi="66.934593">
      <path
         d="M 0,0 V 2.154 H -6.076 V 13.645 H -8.57 V 0 Z"
         style="fill:#747678;fill-opacity:1;fill-rule:nonzero;stroke:none"
         id="path46"
         inkscape:connector-curvature="0" />
    </g>
    <g
       transform="matrix(5.2660112,0,0,-5.2660112,-3700.4228,2600.2924)"
       id="g48"
       inkscape:export-xdpi="66.934593"
       inkscape:export-ydpi="66.934593">
      <g
         id="g50"
         clip-path="url(#clipPath54)">
        <g
           id="g56"
           transform="translate(820.7454,489.8626)">
          <path
             d="m 0,0 v 2.154 h -5.768 v 3.91 h 4.873 v 2.075 h -4.873 v 3.351 h 3.319 c 2.607,0 2.751,2.155 2.751,2.155 H -8.261 V 0 Z"
             style="fill:#747678;fill-opacity:1;fill-rule:nonzero;stroke:none"
             id="path58"
             inkscape:connector-curvature="0" />
        </g>
      </g>
    </g>
    <g
       id="g60"
       transform="matrix(5.2660112,0,0,-5.2660112,502.42532,20.670463)"
       inkscape:export-xdpi="66.934593"
       inkscape:export-ydpi="66.934593">
      <path
         d="M 0,0 -5.426,13.645 H -7.799 L -13.445,0 h 2.666 l 1.364,3.471 h 5.266 L -2.792,0 Z m -4.967,5.625 h -3.57 l 1.774,4.608 0.021,0.08 z"
         style="fill:#747678;fill-opacity:1;fill-rule:nonzero;stroke:none"
         id="path62"
         inkscape:connector-curvature="0" />
    </g>
  </g>
</svg>
